<svg width="64" height="64" viewBox="0 0 64 64" fill="none" xmlns="http://www.w3.org/2000/svg">
<g clip-path="url(#clip0_1_79)">
<path d="M18.1333 24.2667C20.2667 26.4 21.3333 28.9778 21.3333 32C21.3333 35.0222 20.2667 37.5111 18.1333 39.4667C16.1778 41.6 13.6889 42.6667 10.6667 42.6667C7.64444 42.6667 5.06666 41.6 2.93333 39.4667C0.977774 37.5111 0 35.0222 0 32C0 28.9778 0.977774 26.4 2.93333 24.2667C5.06666 22.3111 7.64444 21.3333 10.6667 21.3333C13.6889 21.3333 16.1778 22.3111 18.1333 24.2667Z" fill="#FCFCFC"/>
<path d="M39.4667 2.93333C41.6 5.06666 42.6667 7.64444 42.6667 10.6667C42.6667 13.6889 41.6 16.1778 39.4667 18.1333C37.5111 20.2667 35.0222 21.3333 32 21.3333C28.9778 21.3333 26.4 20.2667 24.2667 18.1333C22.3111 16.1778 21.3333 13.6889 21.3333 10.6667C21.3333 7.64444 22.3111 5.06666 24.2667 2.93333C26.4 0.977774 28.9778 0 32 0C35.0222 0 37.5111 0.977774 39.4667 2.93333Z" fill="#FCFCFC"/>
<path d="M60.8 24.2667C62.9333 26.4 64 28.9778 64 32C64 35.0222 62.9333 37.5111 60.8 39.4667C58.8445 41.6 56.3556 42.6667 53.3333 42.6667C50.3111 42.6667 47.7333 41.6 45.6 39.4667C43.6444 37.5111 42.6667 35.0222 42.6667 32C42.6667 28.9778 43.6444 26.4 45.6 24.2667C47.7333 22.3111 50.3111 21.3333 53.3333 21.3333C56.3556 21.3333 58.8445 22.3111 60.8 24.2667Z" fill="#FCFCFC"/>
<path d="M39.4667 45.6C41.6 47.7333 42.6667 50.3111 42.6667 53.3333C42.6667 56.3556 41.6 58.8445 39.4667 60.8C37.5111 62.9333 35.0222 64 32 64C28.9778 64 26.4 62.9333 24.2667 60.8C22.3111 58.8445 21.3333 56.3556 21.3333 53.3333C21.3333 50.3111 22.3111 47.7333 24.2667 45.6C26.4 43.6444 28.9778 42.6667 32 42.6667C35.0222 42.6667 37.5111 43.6444 39.4667 45.6Z" fill="#E73246"/>
</g>
<defs>
<clipPath id="clip0_1_79">
<rect width="64" height="64" fill="white"/>
</clipPath>
</defs>
</svg>
